{"title":"100 Tears (Uncut) - [2007] - DVDRip - XviD","uid":4770515,"size":923361478,"categoryP":"video","categoryS":"movies","magnet":"?xt=urn:btih:8ba5bb3bb32958b32e73f535e9e16c062301192d&amp;dn=100+Tears+%28Uncut%29+-+%5B2007%5D+-+DVDRip+-+XviD&amp;tr=udp%3A%2F%2Ftracker.openbittorrent.com%3A80&amp;tr=udp%3A%2F%2Fopen.demonii.com%3A1337&amp;tr=udp%3A%2F%2Ftracker.coppersurfer.tk%3A6969&amp;tr=udp%3A%2F%2Fexodus.desync.com%3A6969","seeders":2,"leechers":1,"uploader":"akhiugo","files":-1,"time":1237028918,"description":"After being accused of crimes he did not commit, a lonely circus performer exacts his revenge on those who unjustly condemned him. The act sparks something inside of him which he cannot stop and now, years later, his inner-demons have truly surfaced. Part urban legend, part tabloid sensationalism... he is now an unstoppable murderous juggernaut, fueled only by hate. \n\n\n\n\nGeneral\nComplete name                    : 100 Tears UNCUT 2007 DVDRip.avi\nFormat                           : AVI\nFormat/Info                      : Audio Video Interleave\nFile size                        : 881 MiB\nDuration                         : 1h 32mn\nOverall bit rate                 : 1 336 Kbps\n\nVideo\nFormat                           : MPEG-4 Visual\nFormat profile                   : Simple@L3\nFormat settings, BVOP            : No\nFormat settings, QPel            : No\nFormat settings, GMC             : No warppoints\nFormat settings, Matrix          : Default\nCodec ID                         : XVID\nCodec ID/Hint                    : XviD\nDuration                         : 1h 32mn\nBit rate                         : 1 196 Kbps\nWidth                            : 720 pixels\nHeight                           : 480 pixels\nDisplay aspect ratio             : 1.500\nFrame rate                       : 23.976 fps\nStandard                         : NTSC\nResolution                       : 24 bits\nColorimetry                      : 4:2:0\nScan type                        : Progressive\nBits/(Pixel*Frame)               : 0.144\nStream size                      : 788 MiB (89%)\nWriting library                  : XviD 1.1.0 Beta2 (UTC 2005-04-04)\n\nAudio\nFormat                           : MPEG Audio\nFormat version                   : Version 1\nFormat profile                   : Layer 3\nCodec ID                         : 55\nCodec ID/Hint                    : MP3\nDuration                         : 1h 32mn\nBit rate mode                    : Constant\nBit rate                         : 128 Kbps\nChannel(s)                       : 2 channels\nSampling rate                    : 48.0 KHz\nResolution                       : 16 bits\nStream size                      : 84.3 MiB (10%)\nAlignment                        : Aligned on interleaves\nInterleave, duration             : 24 ms (0.58 video frame)\nWriting library                  : LAME3.96.1\n\n\n\nPlease help your fellow pirates by seeding after download!","torrent":{"xt":"urn:btih:8ba5bb3bb32958b32e73f535e9e16c062301192d","amp;dn":"100+Tears+%28Uncut%29+-+%5B2007%5D+-+DVDRip+-+XviD","amp;tr":["udp%3A%2F%2Ftracker.openbittorrent.com%3A80","udp%3A%2F%2Fopen.demonii.com%3A1337","udp%3A%2F%2Ftracker.coppersurfer.tk%3A6969","udp%3A%2F%2Fexodus.desync.com%3A6969"],"infoHash":"8ba5bb3bb32958b32e73f535e9e16c062301192d","infoHashBuffer":{"type":"Buffer","data":[139,165,187,59,179,41,88,179,46,115,245,53,233,225,108,6,35,1,25,45]},"announce":[],"urlList":[]}}